<svg width="50" height="50" viewBox="0 0 50 50" fill="none" xmlns="http://www.w3.org/2000/svg">
<rect y="24.7488" width="29.1064" height="3.71681" transform="rotate(-45 0 24.7488)" fill="#FC1012"/>
<rect x="8.47107" y="25.0383" width="17.9339" height="3.71681" transform="rotate(-45 8.47107 25.0383)" fill="#FC1012"/>
<rect x="17.1465" y="25.1234" width="11.6426" height="3.71681" transform="rotate(-45 17.1465 25.1234)" fill="#FC1012"/>
<rect x="21.3953" y="29.6279" width="11.6426" height="3.71681" transform="rotate(-45 21.3953 29.6279)" fill="#FC1012"/>
<rect x="25.7025" y="34.0886" width="17.4638" height="3.71681" transform="rotate(-45 25.7025 34.0886)" fill="#FC1012"/>
<rect x="26.2113" y="42.7786" width="29.1064" height="3.71681" transform="rotate(-45 26.2113 42.7786)" fill="#FC1012"/>
<path d="M22.2943 2.45447L24.7487 4.75676e-05L45.1172 20.3685L42.6627 22.8229L22.2943 2.45447Z" fill="#FC1012"/>
<path d="M22.5839 10.9254L25.0383 8.47099L36.4271 19.8598L33.9727 22.3142L22.5839 10.9254Z" fill="#FC1012"/>
<path d="M12.8513 29.4186L15.3057 26.9642L26.6945 38.353L24.2401 40.8074L12.8513 29.4186Z" fill="#FC1012"/>
<path d="M4.38025 29.129L6.83467 26.6746L27.2031 47.043L24.7487 49.4975L4.38025 29.129Z" fill="#FC1012"/>
</svg>
