<svg width="51" height="51" viewBox="0 0 51 51" fill="none" xmlns="http://www.w3.org/2000/svg">
<rect x="0.768555" y="25.3284" width="29.1064" height="3.71681" transform="rotate(-45 0.768555 25.3284)" fill="#EF8732"/>
<rect x="9.23962" y="25.6179" width="17.9339" height="3.71681" transform="rotate(-45 9.23962 25.6179)" fill="#EF8732"/>
<rect x="17.915" y="25.703" width="11.6426" height="3.71681" transform="rotate(-45 17.915 25.703)" fill="#EF8732"/>
<rect x="22.1638" y="30.2075" width="11.6426" height="3.71681" transform="rotate(-45 22.1638 30.2075)" fill="#EF8732"/>
<rect x="26.4711" y="34.6682" width="17.4638" height="3.71681" transform="rotate(-45 26.4711 34.6682)" fill="#EF8732"/>
<rect x="26.9799" y="43.3582" width="29.1064" height="3.71681" transform="rotate(-45 26.9799 43.3582)" fill="#EF8733"/>
<path d="M23.0629 3.03406L25.5173 0.579637L45.8857 20.9481L43.4313 23.4025L23.0629 3.03406Z" fill="#EF8732"/>
<path d="M23.3524 11.505L25.8068 9.05058L37.1956 20.4394L34.7412 22.8938L23.3524 11.505Z" fill="#EF8732"/>
<path d="M13.6199 29.9982L16.0743 27.5437L27.4631 38.9325L25.0087 41.387L13.6199 29.9982Z" fill="#EF8732"/>
<path d="M5.1488 29.7086L7.60322 27.2542L27.9717 47.6226L25.5172 50.077L5.1488 29.7086Z" fill="#F08733"/>
</svg>
