<svg width="30" height="16" viewBox="0 0 30 16" fill="none" xmlns="http://www.w3.org/2000/svg">
<path d="M29.8383 14.3425C28.6131 12.4267 25.457 10.1246 24.154 9.12289C23.7975 8.84861 23.7593 8.3741 24.0838 8.07079C26.5704 5.74919 28.5592 3.08164 29.2438 1.46973C29.5458 0.757673 28.9206 0.00533145 28.0397 0.00533145H25.4809C24.6375 0.00533145 24.1438 0.268355 23.9086 0.687178C21.842 4.36654 20.0693 5.9589 18.8284 6.88956C18.1337 7.41086 17.0503 6.97901 17.0503 6.18579C17.0503 4.65741 17.0503 2.68177 17.0503 1.28076C17.0503 0.601281 16.4107 0.0515383 15.6219 0.0515383L10.9474 0.00533145C10.359 0.00533145 10.0229 0.584101 10.376 0.989892L11.1478 1.95253C11.4383 2.28605 11.5951 2.69184 11.5951 3.1083L11.591 7.44344C11.591 8.19756 10.539 8.56603 9.91445 8.03762C7.80152 6.24977 5.96814 2.59884 5.30815 0.853049C5.11724 0.347736 4.57247 0.00651624 3.95475 0.00533145L1.4341 0C0.488432 0 -0.202923 0.779 0.0541194 1.56333C2.35727 8.58736 7.0829 15.2696 15.5046 15.9941C16.3344 16.0652 17.0503 15.4846 17.0503 14.766V12.4877C17.0503 11.8343 17.64 11.2727 18.3982 11.2561C18.4248 11.2555 18.4514 11.2555 18.478 11.2555C20.7055 11.2555 23.2002 14.0723 24.0729 15.3898C24.3238 15.769 24.7929 16 25.3002 16H28.6908C29.6801 16 30.3149 15.0883 29.8383 14.3425Z" fill="white"/>
</svg>
