<svg width="27" height="19" viewBox="0 0 27 19" fill="none" xmlns="http://www.w3.org/2000/svg">
<path d="M27 2.24899C26.0062 2.63117 24.9387 2.88835 23.8183 3.00435C24.9626 2.41086 25.8401 1.47115 26.2534 0.350703C25.1838 0.900137 23.9979 1.2994 22.7352 1.51522C21.7248 0.582706 20.2856 0 18.6926 0C15.6334 0 13.1537 2.14828 13.1537 4.79654C13.1537 5.17242 13.2035 5.53931 13.297 5.88911C8.69367 5.68948 4.61267 3.7795 1.87954 0.876757C1.40395 1.58536 1.13084 2.40906 1.13084 3.28941C1.13084 4.953 2.108 6.42146 3.59398 7.28113C2.6864 7.25595 1.83178 7.04013 1.08515 6.68134C1.08515 6.70202 1.08515 6.7209 1.08515 6.74159C1.08515 9.06612 2.99377 11.0049 5.52856 11.4446C5.06438 11.5543 4.57425 11.6128 4.06854 11.6128C3.71236 11.6128 3.36449 11.5822 3.027 11.5273C3.73209 13.4328 5.77778 14.8203 8.20145 14.859C6.30633 16.1458 3.91796 16.9129 1.32191 16.9129C0.87539 16.9129 0.43406 16.8904 0 16.8454C2.45171 18.206 5.36241 19 8.49117 19C18.6802 19 24.2503 11.691 24.2503 5.35226C24.2503 5.14454 24.2451 4.93772 24.2347 4.73179C25.3178 4.05466 26.2575 3.21028 27 2.24899Z" fill="white"/>
</svg>
